<?xml version="1.0"?>
<svg xmlns="http://www.w3.org/2000/svg" xmlns:xlink="http://www.w3.org/1999/xlink" version="1.1" id="Layer_1" x="0px" y="0px" viewBox="0 0 512 512" style="enable-background:new 0 0 512 512;" xml:space="preserve" width="512px" height="512px" class=""><g><path style="fill:#ECECEC;" d="M472.643,49.978H39.357c-9.446,0-17.103,7.658-17.103,17.103v323.824  c0,9.446,7.658,17.103,17.103,17.103h433.286c9.446,0,17.103-7.658,17.103-17.103V67.081  C489.746,57.634,482.089,49.978,472.643,49.978z" data-original="#ECECEC" class=""/><path style="fill:#FFFFFF;" d="M256,49.978H39.357c-9.446,0-17.103,7.658-17.103,17.103v323.824c0,9.446,7.658,17.103,17.103,17.103  H256V49.978z" data-original="#FFFFFF" class=""/><path style="fill:#BCBEC4" d="M22.254,377.285v13.619c0,9.446,7.658,17.103,17.103,17.103h433.286  c9.446,0,17.103-7.658,17.103-17.103v-13.619H22.254z" data-original="#1E2E57" class="" data-old_color="#BBBDC4"/><path style="fill:#BCBEC4" d="M22.254,377.285v13.619c0,9.446,7.658,17.103,17.103,17.103H256v-30.722H22.254z" data-original="#40467C" class="" data-old_color="#B9BCC4"/><path style="fill:#BCBEC4" d="M489.746,84.584V67.081c0-9.446-7.658-17.103-17.103-17.103H39.357  c-9.446,0-17.103,7.658-17.103,17.103v17.502H489.746z" data-original="#1E2E57" class="" data-old_color="#BBBDC4"/><path style="fill:#BCBEC4" d="M256,84.584V49.978H39.357c-9.446,0-17.103,7.658-17.103,17.103v17.502H256z" data-original="#40467C" class="" data-old_color="#B9BCC4"/><path style="fill:#BCBEC4" d="M494.897,462.022H17.103C7.658,462.022,0,454.364,0,444.919s7.658-17.103,17.103-17.103h477.793  c9.446,0,17.103,7.658,17.103,17.103S504.342,462.022,494.897,462.022z" data-original="#1E2E57" class="" data-old_color="#BBBDC4"/><path style="fill:#BCBEC4" d="M256,462.022H17.103C7.658,462.022,0,454.364,0,444.919s7.658-17.103,17.103-17.103H256V462.022z" data-original="#40467C" class="" data-old_color="#B9BCC4"/><path style="fill:#7DC2CE" d="M383.417,121.991l-68.076-7.938c-20.005-2.335-40.374-0.042-59.341,6.626  c-18.967-6.668-39.337-8.959-59.341-6.626l-68.076,7.938c-8.621,1.005-15.123,8.309-15.123,16.988v182.994  c0,8.758,6.617,16.101,15.327,17.011l89.445,9.341c2.432,0.254,4.864,0.38,7.289,0.38c10.57,0,20.988-2.39,30.477-6.967  c11.666,5.627,24.736,7.946,37.767,6.587l89.445-9.341c8.711-0.91,15.327-8.253,15.327-17.011V138.979  C398.54,130.299,392.038,122.996,383.417,121.991z" data-original="#3BC0DA" class="active-path" data-old_color="#8DDAE8"/><path style="fill:#98DAE5;" d="M256,120.679c-18.967-6.668-39.337-8.959-59.341-6.626l-68.076,7.938  c-8.621,1.005-15.123,8.309-15.123,16.988v182.994c0,8.758,6.617,16.101,15.327,17.011l89.445,9.341  c2.432,0.254,4.864,0.38,7.289,0.38c10.57,0,20.988-2.39,30.477-6.967V120.679H256z" data-original="#98DAE5"/><path style="fill:#FF1E1E;" d="M309.233,205.448l-63.129-31.652c-7.946-3.984-17.206-3.576-24.771,1.093  c-7.564,4.669-12.081,12.764-12.081,21.653v63.304c0,8.888,4.515,16.984,12.08,21.652c4.111,2.538,8.722,3.817,13.351,3.817  c3.889,0,7.792-0.903,11.421-2.722l63.13-31.652c8.661-4.342,14.041-13.059,14.041-22.747  C323.273,218.507,317.893,209.791,309.233,205.448z" data-original="#FF1E1E" class=""/><path style="fill:#FF7F55" d="M256.002,178.759l-9.898-4.963c-7.946-3.984-17.206-3.576-24.771,1.093  c-7.564,4.669-12.081,12.764-12.081,21.653v63.304c0,8.888,4.515,16.984,12.08,21.652c4.111,2.538,8.722,3.817,13.351,3.817  c3.889,0,7.792-0.903,11.421-2.722l9.897-4.962L256.002,178.759z" data-original="#FF7F55" class=""/></g> </svg>
